<svg width="22.000000" height="19.000000" viewBox="0 0 22 19" fill="none" xmlns="http://www.w3.org/2000/svg" xmlns:xlink="http://www.w3.org/1999/xlink">
	<desc>
			Created with Pixso.
	</desc>
	<defs>
		<clipPath id="clip37_27">
			<rect id="eye 1" width="22.000000" height="19.000000" fill="white" fill-opacity="0"/>
		</clipPath>
	</defs>
	<rect id="eye 1" width="22.000000" height="19.000000" fill="#FFFFFF" fill-opacity="0"/>
	<g clip-path="url(#clip37_27)">
		<path id="Vector" d="M21.8602 9.13086C21.6636 8.89844 16.9808 3.44531 10.9999 3.44531C5.01901 3.44531 0.335938 8.89844 0.139603 9.13037C-0.0465393 9.35059 -0.0465393 9.64941 0.139603 9.86963C0.335938 10.1021 5.01901 15.5552 10.9999 15.5552C16.9808 15.5552 21.6636 10.1021 21.8602 9.87012C22.0466 9.6499 22.0466 9.35059 21.8602 9.13086ZM10.9999 14.3022C6.59435 14.3022 2.77867 10.6831 1.64914 9.5C2.77721 8.31543 6.58488 4.69824 10.9999 4.69824C15.4052 4.69824 19.2206 8.31689 20.3506 9.50049C19.2226 10.6851 15.4149 14.3022 10.9999 14.3022Z" fill="#8E8E8E" fill-opacity="1.000000" fill-rule="nonzero"/>
		<path id="Vector" d="M10.9999 5.7417C8.60046 5.7417 6.64825 7.42773 6.64825 9.5C6.64825 11.5723 8.60046 13.2583 10.9999 13.2583C13.3994 13.2583 15.3516 11.5723 15.3516 9.5C15.3516 7.42773 13.3994 5.7417 10.9999 5.7417ZM10.9999 12.0054C9.40019 12.0054 8.09885 10.8813 8.09885 9.5C8.09885 8.11865 9.40024 6.99463 10.9999 6.99463C12.5996 6.99463 13.901 8.11865 13.901 9.5C13.901 10.8813 12.5997 12.0054 10.9999 12.0054Z" fill="#8E8E8E" fill-opacity="1.000000" fill-rule="nonzero"/>
	</g>
</svg>
