<svg width="14.000000" height="14.000000" viewBox="0 0 14 14" fill="none" xmlns="http://www.w3.org/2000/svg" xmlns:xlink="http://www.w3.org/1999/xlink">
	<desc>
			Created with Pixso.
	</desc>
	<defs>
		<clipPath id="clip24_56">
			<rect id="invisible 1" width="14.000000" height="14.000000" fill="white" fill-opacity="0"/>
		</clipPath>
	</defs>
	<rect id="invisible 1" width="14.000000" height="14.000000" fill="#FFFFFF" fill-opacity="0"/>
	<g clip-path="url(#clip24_56)">
		<path id="Vector" d="M6.89343 4.78271L8.89752 6.78687L8.90707 6.68188C8.90707 5.62891 8.05136 4.77319 6.99841 4.77319L6.89343 4.78271Z" fill="#ABABAB" fill-opacity="1.000000" fill-rule="nonzero"/>
		<path id="Vector" d="M6.99843 3.50073C8.75439 3.50073 10.1795 4.92578 10.1795 6.68188C10.1795 7.09204 10.0968 7.4834 9.95369 7.84277L11.8146 9.70386C12.7753 8.9021 13.5324 7.86523 14 6.68188C12.8962 3.88892 10.1827 1.91016 6.99846 1.91016C6.10774 1.91016 5.25523 2.06909 4.46313 2.35547L5.83737 3.72656C6.19679 3.58667 6.58807 3.50073 6.99843 3.50073Z" fill="#ABABAB" fill-opacity="1.000000" fill-rule="nonzero"/>
		<path id="Vector" d="M0.636215 1.76733L2.08679 3.21777L2.37628 3.50732C1.32652 4.32812 0.496246 5.41919 0 6.68213C1.10066 9.4751 3.81731 11.4536 6.99841 11.4536C7.98457 11.4536 8.92616 11.2627 9.78825 10.916L10.0587 11.1865L11.9132 13.0442L12.7244 12.2363L1.44739 0.956055L0.636215 1.76733ZM4.15453 5.28247L5.13748 6.26538C5.10884 6.4021 5.08977 6.53882 5.08977 6.68213C5.08977 7.73486 5.94547 8.59058 6.99841 8.59058C7.14157 8.59058 7.27837 8.57153 7.41197 8.54297L8.39493 9.52588C7.97183 9.73584 7.50105 9.86304 6.99841 9.86304C5.24246 9.86304 3.81731 6.68213 3.81731 6.68213C3.81731 6.68213 3.94456 5.7085 4.15453 5.28247Z" fill="#ABABAB" fill-opacity="1.000000" fill-rule="nonzero"/>
	</g>
</svg>
